<mxfile host="app.diagrams.net" agent="Mozilla/5.0 (Windows NT 10.0; Win64; x64) AppleWebKit/537.36 (KHTML, like Gecko) Chrome/131.0.0.0 Safari/537.36" version="25.0.1">
  <diagram name="Page-1" id="TjiBL3XmjO_udOqTvaTY">
    <mxGraphModel dx="664" dy="384" grid="1" gridSize="10" guides="1" tooltips="1" connect="1" arrows="1" fold="1" page="1" pageScale="1" pageWidth="850" pageHeight="1100" math="0" shadow="0">
      <root>
        <mxCell id="0" />
        <mxCell id="1" parent="0" />
        <mxCell id="QmPn03PUYMqEwBN5ETS5-2" value="" style="endArrow=baseDash;startArrow=baseDash;html=1;rounded=0;startFill=0;endFill=0;strokeWidth=2;fillColor=#f8cecc;strokeColor=#b85450;" edge="1" parent="1">
          <mxGeometry width="50" height="50" relative="1" as="geometry">
            <mxPoint x="89" y="108" as="sourcePoint" />
            <mxPoint x="119" y="108" as="targetPoint" />
          </mxGeometry>
        </mxCell>
        <mxCell id="QmPn03PUYMqEwBN5ETS5-3" value="" style="endArrow=baseDash;startArrow=baseDash;html=1;rounded=0;startFill=0;endFill=0;strokeWidth=2;fillColor=#f8cecc;strokeColor=#b85450;" edge="1" parent="1">
          <mxGeometry width="50" height="50" relative="1" as="geometry">
            <mxPoint x="179" y="108" as="sourcePoint" />
            <mxPoint x="209" y="108" as="targetPoint" />
          </mxGeometry>
        </mxCell>
        <mxCell id="QmPn03PUYMqEwBN5ETS5-4" value="" style="endArrow=baseDash;startArrow=baseDash;html=1;rounded=0;startFill=0;endFill=0;strokeWidth=2;fillColor=#f8cecc;strokeColor=#b85450;" edge="1" parent="1">
          <mxGeometry width="50" height="50" relative="1" as="geometry">
            <mxPoint x="409" y="108" as="sourcePoint" />
            <mxPoint x="439" y="108" as="targetPoint" />
          </mxGeometry>
        </mxCell>
        <mxCell id="QmPn03PUYMqEwBN5ETS5-6" value="" style="endArrow=baseDash;startArrow=baseDash;html=1;rounded=0;startFill=0;endFill=0;strokeWidth=2;fillColor=#f8cecc;strokeColor=#b85450;" edge="1" parent="1">
          <mxGeometry width="50" height="50" relative="1" as="geometry">
            <mxPoint x="499" y="108" as="sourcePoint" />
            <mxPoint x="529" y="108" as="targetPoint" />
          </mxGeometry>
        </mxCell>
        <mxCell id="QmPn03PUYMqEwBN5ETS5-7" value="" style="endArrow=baseDash;startArrow=baseDash;html=1;rounded=0;startFill=0;endFill=0;strokeWidth=2;fillColor=#d5e8d4;strokeColor=#82b366;" edge="1" parent="1">
          <mxGeometry width="50" height="50" relative="1" as="geometry">
            <mxPoint x="269" y="98" as="sourcePoint" />
            <mxPoint x="299" y="98" as="targetPoint" />
          </mxGeometry>
        </mxCell>
        <mxCell id="QmPn03PUYMqEwBN5ETS5-8" value="" style="endArrow=baseDash;startArrow=baseDash;html=1;rounded=0;startFill=0;endFill=0;strokeWidth=2;fillColor=#d5e8d4;strokeColor=#82b366;" edge="1" parent="1">
          <mxGeometry width="50" height="50" relative="1" as="geometry">
            <mxPoint x="359" y="98" as="sourcePoint" />
            <mxPoint x="389" y="98" as="targetPoint" />
          </mxGeometry>
        </mxCell>
        <mxCell id="QmPn03PUYMqEwBN5ETS5-9" value="" style="endArrow=baseDash;startArrow=baseDash;html=1;rounded=0;startFill=0;endFill=0;strokeWidth=2;fillColor=#d5e8d4;strokeColor=#82b366;" edge="1" parent="1">
          <mxGeometry width="50" height="50" relative="1" as="geometry">
            <mxPoint x="589" y="98" as="sourcePoint" />
            <mxPoint x="619" y="98" as="targetPoint" />
          </mxGeometry>
        </mxCell>
        <mxCell id="QmPn03PUYMqEwBN5ETS5-10" value="" style="endArrow=baseDash;startArrow=baseDash;html=1;rounded=0;startFill=0;endFill=0;strokeWidth=2;fillColor=#d5e8d4;strokeColor=#82b366;" edge="1" parent="1">
          <mxGeometry width="50" height="50" relative="1" as="geometry">
            <mxPoint x="679" y="98" as="sourcePoint" />
            <mxPoint x="709" y="98" as="targetPoint" />
          </mxGeometry>
        </mxCell>
        <mxCell id="QmPn03PUYMqEwBN5ETS5-11" value="" style="endArrow=baseDash;startArrow=baseDash;html=1;rounded=0;startFill=0;endFill=0;strokeWidth=2;fillColor=#dae8fc;strokeColor=#6c8ebf;" edge="1" parent="1">
          <mxGeometry width="50" height="50" relative="1" as="geometry">
            <mxPoint x="129" y="88" as="sourcePoint" />
            <mxPoint x="159" y="88" as="targetPoint" />
          </mxGeometry>
        </mxCell>
        <mxCell id="QmPn03PUYMqEwBN5ETS5-12" value="" style="endArrow=baseDash;startArrow=baseDash;html=1;rounded=0;startFill=0;endFill=0;strokeWidth=2;fillColor=#dae8fc;strokeColor=#6c8ebf;" edge="1" parent="1">
          <mxGeometry width="50" height="50" relative="1" as="geometry">
            <mxPoint x="219" y="88" as="sourcePoint" />
            <mxPoint x="249" y="88" as="targetPoint" />
          </mxGeometry>
        </mxCell>
        <mxCell id="QmPn03PUYMqEwBN5ETS5-13" value="" style="endArrow=baseDash;startArrow=baseDash;html=1;rounded=0;startFill=0;endFill=0;strokeWidth=2;fillColor=#dae8fc;strokeColor=#6c8ebf;" edge="1" parent="1">
          <mxGeometry width="50" height="50" relative="1" as="geometry">
            <mxPoint x="449" y="88" as="sourcePoint" />
            <mxPoint x="479" y="88" as="targetPoint" />
          </mxGeometry>
        </mxCell>
        <mxCell id="QmPn03PUYMqEwBN5ETS5-14" value="" style="endArrow=baseDash;startArrow=baseDash;html=1;rounded=0;startFill=0;endFill=0;strokeWidth=2;fillColor=#dae8fc;strokeColor=#6c8ebf;" edge="1" parent="1">
          <mxGeometry width="50" height="50" relative="1" as="geometry">
            <mxPoint x="539" y="88" as="sourcePoint" />
            <mxPoint x="569" y="88" as="targetPoint" />
          </mxGeometry>
        </mxCell>
        <mxCell id="QmPn03PUYMqEwBN5ETS5-1" value="" style="endArrow=baseDash;startArrow=baseDash;html=1;rounded=0;startFill=0;endFill=0;strokeWidth=4;" edge="1" parent="1">
          <mxGeometry width="50" height="50" relative="1" as="geometry">
            <mxPoint x="80" y="120" as="sourcePoint" />
            <mxPoint x="760" y="120" as="targetPoint" />
          </mxGeometry>
        </mxCell>
        <mxCell id="QmPn03PUYMqEwBN5ETS5-5" value="&lt;font style=&quot;font-size: 17px;&quot;&gt;song timeline&lt;/font&gt;" style="edgeLabel;html=1;align=center;verticalAlign=middle;resizable=0;points=[];labelBackgroundColor=none;" vertex="1" connectable="0" parent="QmPn03PUYMqEwBN5ETS5-1">
          <mxGeometry x="-0.1503" y="-5" relative="1" as="geometry">
            <mxPoint x="56" y="5" as="offset" />
          </mxGeometry>
        </mxCell>
        <mxCell id="QmPn03PUYMqEwBN5ETS5-15" value="" style="endArrow=baseDash;startArrow=baseDash;html=1;rounded=0;startFill=0;endFill=0;strokeWidth=2;fillColor=#f8cecc;strokeColor=#b85450;" edge="1" parent="1">
          <mxGeometry width="50" height="50" relative="1" as="geometry">
            <mxPoint x="80" y="154.62" as="sourcePoint" />
            <mxPoint x="110" y="154.62" as="targetPoint" />
          </mxGeometry>
        </mxCell>
        <mxCell id="QmPn03PUYMqEwBN5ETS5-16" value="&lt;font style=&quot;font-size: 13px;&quot; color=&quot;#a53b3b&quot;&gt;guitar pattern&lt;/font&gt;" style="text;html=1;align=left;verticalAlign=middle;whiteSpace=wrap;rounded=0;" vertex="1" parent="1">
          <mxGeometry x="113" y="140" width="80" height="30" as="geometry" />
        </mxCell>
        <mxCell id="QmPn03PUYMqEwBN5ETS5-19" value="" style="endArrow=baseDash;startArrow=baseDash;html=1;rounded=0;startFill=0;endFill=0;strokeWidth=2;fillColor=#d5e8d4;strokeColor=#82b366;" edge="1" parent="1">
          <mxGeometry width="50" height="50" relative="1" as="geometry">
            <mxPoint x="80" y="174.62" as="sourcePoint" />
            <mxPoint x="110" y="174.62" as="targetPoint" />
          </mxGeometry>
        </mxCell>
        <mxCell id="QmPn03PUYMqEwBN5ETS5-20" value="&lt;font style=&quot;font-size: 13px;&quot; color=&quot;#67c262&quot;&gt;keyboard pattern&lt;/font&gt;" style="text;html=1;align=left;verticalAlign=middle;whiteSpace=wrap;rounded=0;" vertex="1" parent="1">
          <mxGeometry x="113" y="160" width="97" height="30" as="geometry" />
        </mxCell>
        <mxCell id="QmPn03PUYMqEwBN5ETS5-21" value="" style="endArrow=baseDash;startArrow=baseDash;html=1;rounded=0;startFill=0;endFill=0;strokeWidth=2;fillColor=#dae8fc;strokeColor=#6c8ebf;" edge="1" parent="1">
          <mxGeometry width="50" height="50" relative="1" as="geometry">
            <mxPoint x="80" y="194.62" as="sourcePoint" />
            <mxPoint x="110" y="194.62" as="targetPoint" />
          </mxGeometry>
        </mxCell>
        <mxCell id="QmPn03PUYMqEwBN5ETS5-22" value="&lt;font style=&quot;font-size: 13px;&quot; color=&quot;#6e83c2&quot;&gt;drum pattern&lt;/font&gt;" style="text;html=1;align=left;verticalAlign=middle;whiteSpace=wrap;rounded=0;" vertex="1" parent="1">
          <mxGeometry x="113" y="180" width="80" height="30" as="geometry" />
        </mxCell>
      </root>
    </mxGraphModel>
  </diagram>
</mxfile>
